<svg width="40" height="40" viewBox="0 0 40 40" fill="none" xmlns="http://www.w3.org/2000/svg">
<path d="M26.3159 10.7314C30.0039 14.6894 28.8959 20.9864 24.1249 23.5634C23.8049 23.7364 23.4929 24.0334 23.4969 24.3744C23.5136 25.8304 23.5146 27.2857 23.4999 28.7404C23.4939 29.3637 23.4396 29.8251 23.3369 30.1244C22.9449 31.2704 22.0619 31.7824 20.8559 31.9524C19.1619 32.1904 17.2089 31.8594 16.6509 30.0194C16.5549 29.7027 16.5062 29.2287 16.5049 28.5974C16.5022 27.1974 16.5059 25.7984 16.5159 24.4004C16.5172 24.2424 16.4439 24.0597 16.2959 23.8524C16.2232 23.7497 16.0082 23.5961 15.6509 23.3914C13.5616 22.1974 12.2459 20.4341 11.7039 18.1014C10.9029 14.6574 12.4059 11.2844 15.3449 9.36836C18.8589 7.07636 23.4779 7.68636 26.3159 10.7314ZM25.5159 10.9584C23.1199 8.53836 19.3489 8.08136 16.4299 9.58536C10.9939 12.3854 10.8279 19.8864 16.1739 22.8894C16.5259 23.0867 16.7589 23.2514 16.8729 23.3834C17.3419 23.9244 17.2779 24.5814 17.2739 25.2274C17.2739 25.2694 17.2949 25.2904 17.3369 25.2904H22.6779C22.7192 25.2904 22.7396 25.2697 22.7389 25.2284C22.7359 24.1524 22.7089 23.5314 23.6979 22.9664C24.1526 22.7057 24.4509 22.5231 24.5929 22.4184C28.4119 19.6074 28.8669 14.3444 25.5159 10.9584ZM18.7189 27.5944C18.4399 27.4204 18.5649 26.9404 18.8999 26.9404C20.1592 26.9397 21.4196 26.9394 22.6809 26.9394C22.7102 26.9394 22.7249 26.9247 22.7249 26.8954V26.1254C22.7249 26.0921 22.7082 26.0754 22.6749 26.0754H17.3429C17.3049 26.0754 17.2859 26.0944 17.2859 26.1324L17.2849 26.8784C17.2849 26.8869 17.2866 26.8953 17.29 26.9031C17.2933 26.9109 17.2983 26.9179 17.3044 26.9237C17.3106 26.9295 17.3179 26.934 17.3259 26.9369C17.3339 26.9397 17.3424 26.9409 17.3509 26.9404C17.6916 26.9177 17.8616 27.0701 17.8609 27.3974C17.8606 27.4159 17.8562 27.4341 17.8481 27.4509C17.84 27.4676 17.8283 27.4825 17.8139 27.4944C17.6772 27.6057 17.5206 27.6687 17.3439 27.6834C17.3276 27.6847 17.3125 27.692 17.3015 27.7039C17.2906 27.7158 17.2846 27.7313 17.2849 27.7474L17.2859 28.5714C17.2859 28.6007 17.3006 28.6154 17.3299 28.6154H22.6799C22.7099 28.6154 22.7249 28.6004 22.7249 28.5704V27.7264C22.7249 27.6904 22.7069 27.6724 22.6709 27.6724C21.4696 27.6804 20.2692 27.6781 19.0699 27.6654C18.9092 27.6634 18.7922 27.6397 18.7189 27.5944ZM22.7139 29.3824L17.2979 29.3924L17.2958 29.3933L17.2949 29.3954V29.4014C17.2953 29.6432 17.3522 29.8825 17.4621 30.1057C17.5721 30.3289 17.733 30.5316 17.9357 30.7022C18.1385 30.8728 18.379 31.0079 18.6436 31.0999C18.9082 31.1919 19.1917 31.239 19.4779 31.2384L20.5419 31.2364C21.1197 31.2352 21.6734 31.0402 22.0813 30.6942C22.4892 30.3482 22.7178 29.8796 22.7169 29.3914V29.3854L22.7167 29.3842L22.716 29.3833L22.715 29.3826L22.7139 29.3824Z" fill="#07448E"/>
<path d="M20.4033 16.6158L22.2473 16.6148C22.2951 16.6147 22.3419 16.6279 22.3826 16.6529C22.4233 16.6779 22.4562 16.7137 22.4778 16.7563C22.4994 16.7989 22.5087 16.8466 22.5047 16.8942C22.5007 16.9418 22.4836 16.9874 22.4553 17.0258L19.3083 21.3058C19.272 21.3553 19.2183 21.3892 19.158 21.4007C19.0977 21.4122 19.0353 21.4004 18.9833 21.3678C18.8593 21.2908 18.8453 21.2078 18.8793 21.0648C19.134 19.9928 19.3937 18.9151 19.6583 17.8318C19.6597 17.8265 19.6598 17.8209 19.6587 17.8155C19.6576 17.8101 19.6553 17.805 19.6519 17.8007C19.6485 17.7963 19.6442 17.7928 19.6392 17.7904C19.6343 17.788 19.6288 17.7868 19.6233 17.7868L17.7463 17.7718C17.6997 17.7714 17.6541 17.7581 17.6145 17.7335C17.5749 17.7088 17.5429 17.6738 17.522 17.6322C17.501 17.5906 17.4921 17.5441 17.496 17.4978C17.5 17.4515 17.5167 17.4072 17.5443 17.3698L20.6893 13.0938C20.7277 13.0412 20.7852 13.0059 20.8496 12.9954C20.9139 12.985 20.9799 13.0002 21.0333 13.0378C21.126 13.1045 21.1563 13.2001 21.1243 13.3248C20.8477 14.3981 20.5923 15.4765 20.3583 16.5598C20.3503 16.5971 20.3653 16.6158 20.4033 16.6158ZM19.9483 17.4888C19.9885 17.5118 20.02 17.5472 20.0382 17.5896C20.0565 17.632 20.0604 17.6791 20.0493 17.7238L19.3613 20.5598C19.342 20.6371 19.3563 20.6438 19.4043 20.5798L22.0203 17.0208C22.0417 16.9915 22.0343 16.9765 21.9983 16.9758L20.1973 16.9558C20.1597 16.9553 20.1227 16.9464 20.089 16.9297C20.0554 16.913 20.0259 16.889 20.0028 16.8594C19.9798 16.8298 19.9637 16.7954 19.9558 16.7587C19.9479 16.7221 19.9485 16.6842 19.9573 16.6478L20.6483 13.8028C20.6495 13.7987 20.6492 13.7944 20.6474 13.7907C20.6457 13.7869 20.6426 13.7839 20.6387 13.7821C20.6348 13.7803 20.6304 13.7799 20.6261 13.781C20.6218 13.782 20.618 13.7844 20.6153 13.7878L17.9883 17.3638C17.9637 17.3985 17.9723 17.4165 18.0143 17.4178C18.571 17.4358 19.125 17.4371 19.6763 17.4218C19.7703 17.4198 19.8743 17.4468 19.9483 17.4888Z" fill="#00B9F5"/>
</svg>
